<svg width="33" height="17" viewBox="0 0 33 17" fill="none" xmlns="http://www.w3.org/2000/svg">
    <path opacity="0.5" fill-rule="evenodd" clip-rule="evenodd" d="M24.4385 16.2838C24.3069 16.2252 24.1882 16.1411 24.0892 16.0365C23.9899 15.9321 23.9122 15.8092 23.8605 15.6748C23.8088 15.5403 23.7841 15.397 23.7879 15.253C23.7916 15.109 23.8238 14.9672 23.8825 14.8357C23.9411 14.7041 24.0252 14.5854 24.1298 14.4864L28.9531 9.91101L2.06851 9.20701C1.77818 9.19941 1.50276 9.07679 1.30283 8.86611C1.10291 8.65544 0.994868 8.37397 1.00247 8.08364C1.01007 7.7933 1.1327 7.51788 1.34337 7.31796C1.55405 7.11803 1.83551 7.00999 2.12585 7.01759L29.0105 7.72159L24.4332 2.89998C24.233 2.68904 24.1248 2.40722 24.1324 2.11652C24.1401 1.82581 24.2628 1.55004 24.4738 1.34987C24.6847 1.14969 24.9665 1.04151 25.2572 1.04913C25.5479 1.05674 25.8237 1.17952 26.0239 1.39046L32.4202 8.13072C32.5194 8.23508 32.5972 8.358 32.6489 8.49244C32.7006 8.62688 32.7252 8.7702 32.7215 8.9142C32.7177 9.05819 32.6856 9.20002 32.6269 9.33157C32.5682 9.46312 32.4842 9.58181 32.3796 9.68083L25.6393 16.0771C25.5349 16.1764 25.412 16.2541 25.2776 16.3058C25.1431 16.3575 24.9998 16.3822 24.8558 16.3784C24.7118 16.3746 24.57 16.3425 24.4385 16.2838Z" fill="white"/>
</svg>
