<svg width="30" height="30" viewBox="0 0 30 30" fill="none" xmlns="http://www.w3.org/2000/svg">
<path d="M21.7682 28.4484C19.1821 29.6123 16.9405 30 13.8801 30C6.72508 30 0.431641 24.8705 0.431641 16.4227C0.431641 7.62937 6.81086 0 16.5529 0C24.1391 0 29.5701 5.21578 29.5701 12.457C29.5701 18.75 26.0357 22.7156 21.3805 22.7156C19.3546 22.7156 17.8893 21.6811 17.6737 19.3964H17.5874C16.2515 21.5948 14.3118 22.7156 12.0271 22.7156C9.22539 22.7156 7.19945 20.6466 7.19945 17.1117C7.19945 11.8533 11.0788 7.06875 17.2855 7.06875C19.1821 7.06875 21.337 7.54312 22.4151 8.14641L21.1223 16.1208C20.6915 18.6633 20.9929 19.8277 22.1999 19.8703C24.0534 19.9134 26.3807 17.5425 26.3807 12.5859C26.3807 6.9825 22.7601 2.62875 16.0785 2.62875C9.48414 2.62875 3.70773 7.80141 3.70773 16.0341C3.70773 23.2322 8.31977 27.3272 14.7426 27.3272C16.941 27.3272 19.2688 26.8533 20.9924 25.9477L21.7682 28.4484ZM17.932 10.6467C17.587 10.5605 17.1557 10.4742 16.5955 10.4742C13.7512 10.4742 11.5091 13.2759 11.5091 16.5947C11.5091 18.2325 12.2423 19.267 13.6645 19.267C15.2591 19.267 16.9405 17.2411 17.3282 14.7413L17.932 10.6467Z" fill="white"/>
</svg>
