<svg width="30" height="30" viewBox="0 0 30 30" fill="none" xmlns="http://www.w3.org/2000/svg">
    <g clip-path="url(#clip0)">
    <path d="M18.9253 10.8952C28.6856 10.8952 27.9645 10.8932 28.1148 10.899C28.0265 10.5619 27.851 10.243 27.5873 9.97924L24.9113 7.3033C24.3331 6.72501 23.4453 6.55689 22.702 6.88518C22.3029 7.06154 21.8273 6.97254 21.5186 6.66383C21.2099 6.35518 21.121 5.87959 21.2972 5.48048C21.6255 4.73736 21.4575 3.84948 20.8791 3.27112L18.2032 0.595182C17.41 -0.197876 16.1196 -0.197935 15.3264 0.595182L11.9785 3.94306C12.922 4.8873 17.9843 9.95348 18.9253 10.8952Z" fill="white"/>
    <path d="M10.7307 5.19092L5.02637 10.8952H16.4295C16.4089 10.8745 15.9725 10.4376 10.7307 5.19092Z" fill="white"/>
    <path d="M28.7341 20.3366C29.4917 20.0433 30.0007 19.2966 30.0007 18.4787V14.6944C30.0007 13.5727 29.0881 12.6602 27.9665 12.6602H23.8242V29.9996H27.9665C29.0881 29.9996 30.0007 29.087 30.0007 27.9654V24.1811C30.0007 23.3633 29.4918 22.6166 28.7342 22.3232C28.3272 22.1656 28.0538 21.7664 28.0538 21.3299C28.0538 20.8933 28.3272 20.4942 28.7341 20.3366Z" fill="white"/>
    <path d="M0.000976563 14.6944V18.4787C0.000976563 19.2966 0.509977 20.0433 1.26751 20.3365C1.67445 20.4942 1.9478 20.8933 1.9478 21.3299C1.9478 21.7664 1.67439 22.1656 1.26745 22.3232C0.509918 22.6166 0.000976562 23.3632 0.000976562 24.1811V27.9654C0.000976562 29.087 0.913565 29.9996 2.03521 29.9996H22.0598V12.6602H2.03521C0.913565 12.6602 0.000976562 13.5727 0.000976562 14.6944H0.000976563ZM6.17745 16.7643H19.4127V18.529H6.17745V16.7643ZM6.17745 20.2937H19.4127V22.0585H6.17745V20.2937ZM6.17745 23.8232H19.4127V25.5879H6.17745V23.8232Z" fill="white"/>
    </g>
    <defs>
    <clipPath id="clip0">
    <rect width="30" height="30" fill="white" transform="translate(0.000976562)"/>
    </clipPath>
    </defs>
</svg>
